<mxfile host="Electron" agent="Mozilla/5.0 (Windows NT 10.0; Win64; x64) AppleWebKit/537.36 (KHTML, like Gecko) draw.io/26.2.2 Chrome/134.0.6998.178 Electron/35.1.2 Safari/537.36" version="26.2.2">
  <diagram name="PÃ¡gina-1" id="UGd0RUdH62qRf_UoWEyx">
    <mxGraphModel dx="1092" dy="825" grid="1" gridSize="10" guides="1" tooltips="1" connect="1" arrows="1" fold="1" page="1" pageScale="1" pageWidth="827" pageHeight="1169" math="0" shadow="0">
      <root>
        <mxCell id="0" />
        <mxCell id="1" parent="0" />
        <mxCell id="6I7LBuJgmqO6G-e0ff2A-2" style="edgeStyle=orthogonalEdgeStyle;rounded=0;orthogonalLoop=1;jettySize=auto;html=1;" edge="1" parent="1" source="6I7LBuJgmqO6G-e0ff2A-1" target="6I7LBuJgmqO6G-e0ff2A-3">
          <mxGeometry relative="1" as="geometry">
            <mxPoint x="420" y="190" as="targetPoint" />
          </mxGeometry>
        </mxCell>
        <mxCell id="6I7LBuJgmqO6G-e0ff2A-1" value="INICIO" style="ellipse;whiteSpace=wrap;html=1;" vertex="1" parent="1">
          <mxGeometry x="360" y="40" width="120" height="80" as="geometry" />
        </mxCell>
        <mxCell id="6I7LBuJgmqO6G-e0ff2A-4" style="edgeStyle=orthogonalEdgeStyle;rounded=0;orthogonalLoop=1;jettySize=auto;html=1;" edge="1" parent="1" source="6I7LBuJgmqO6G-e0ff2A-3" target="6I7LBuJgmqO6G-e0ff2A-5">
          <mxGeometry relative="1" as="geometry">
            <mxPoint x="420" y="290" as="targetPoint" />
          </mxGeometry>
        </mxCell>
        <mxCell id="6I7LBuJgmqO6G-e0ff2A-3" value="PREGUNTAR PESO" style="shape=parallelogram;perimeter=parallelogramPerimeter;whiteSpace=wrap;html=1;fixedSize=1;" vertex="1" parent="1">
          <mxGeometry x="350" y="180" width="140" height="60" as="geometry" />
        </mxCell>
        <mxCell id="6I7LBuJgmqO6G-e0ff2A-6" style="edgeStyle=orthogonalEdgeStyle;rounded=0;orthogonalLoop=1;jettySize=auto;html=1;entryX=0.5;entryY=0;entryDx=0;entryDy=0;" edge="1" parent="1" source="6I7LBuJgmqO6G-e0ff2A-5" target="6I7LBuJgmqO6G-e0ff2A-8">
          <mxGeometry relative="1" as="geometry">
            <mxPoint x="420" y="380" as="targetPoint" />
            <Array as="points">
              <mxPoint x="420" y="365" />
              <mxPoint x="421" y="365" />
              <mxPoint x="421" y="390" />
            </Array>
          </mxGeometry>
        </mxCell>
        <mxCell id="6I7LBuJgmqO6G-e0ff2A-5" value="PREGUNTAR ALTURA" style="shape=parallelogram;perimeter=parallelogramPerimeter;whiteSpace=wrap;html=1;fixedSize=1;" vertex="1" parent="1">
          <mxGeometry x="340" y="290" width="160" height="60" as="geometry" />
        </mxCell>
        <mxCell id="6I7LBuJgmqO6G-e0ff2A-9" style="edgeStyle=orthogonalEdgeStyle;rounded=0;orthogonalLoop=1;jettySize=auto;html=1;" edge="1" parent="1" source="6I7LBuJgmqO6G-e0ff2A-8" target="6I7LBuJgmqO6G-e0ff2A-10">
          <mxGeometry relative="1" as="geometry">
            <mxPoint x="432.5" y="510" as="targetPoint" />
          </mxGeometry>
        </mxCell>
        <mxCell id="6I7LBuJgmqO6G-e0ff2A-8" value="SU IMC ES: PESO/ALTURA**2" style="shape=parallelogram;perimeter=parallelogramPerimeter;whiteSpace=wrap;html=1;fixedSize=1;" vertex="1" parent="1">
          <mxGeometry x="335" y="400" width="195" height="60" as="geometry" />
        </mxCell>
        <mxCell id="6I7LBuJgmqO6G-e0ff2A-11" style="edgeStyle=orthogonalEdgeStyle;rounded=0;orthogonalLoop=1;jettySize=auto;html=1;" edge="1" parent="1" source="6I7LBuJgmqO6G-e0ff2A-10" target="6I7LBuJgmqO6G-e0ff2A-13">
          <mxGeometry relative="1" as="geometry">
            <mxPoint x="590" y="560" as="targetPoint" />
          </mxGeometry>
        </mxCell>
        <mxCell id="6I7LBuJgmqO6G-e0ff2A-14" style="edgeStyle=orthogonalEdgeStyle;rounded=0;orthogonalLoop=1;jettySize=auto;html=1;" edge="1" parent="1" source="6I7LBuJgmqO6G-e0ff2A-10" target="6I7LBuJgmqO6G-e0ff2A-17">
          <mxGeometry relative="1" as="geometry">
            <mxPoint x="310" y="560" as="targetPoint" />
          </mxGeometry>
        </mxCell>
        <mxCell id="6I7LBuJgmqO6G-e0ff2A-10" value="&lt;div style=&quot;color: rgb(204, 204, 204); background-color: rgb(31, 31, 31); font-family: Consolas, &amp;quot;Courier New&amp;quot;, monospace; font-size: 14px; line-height: 19px; white-space: pre;&quot;&gt;&lt;span style=&quot;color: #9cdcfe;&quot;&gt;imc&lt;/span&gt;&lt;span style=&quot;color: #d4d4d4;&quot;&gt;&amp;lt;&lt;/span&gt;&lt;span style=&quot;color: #b5cea8;&quot;&gt;18.5&lt;/span&gt;&lt;/div&gt;" style="rhombus;whiteSpace=wrap;html=1;" vertex="1" parent="1">
          <mxGeometry x="376.25" y="520" width="112.5" height="80" as="geometry" />
        </mxCell>
        <mxCell id="6I7LBuJgmqO6G-e0ff2A-12" value="SI" style="text;html=1;align=center;verticalAlign=middle;resizable=0;points=[];autosize=1;strokeColor=none;fillColor=none;" vertex="1" parent="1">
          <mxGeometry x="520" y="530" width="30" height="30" as="geometry" />
        </mxCell>
        <mxCell id="6I7LBuJgmqO6G-e0ff2A-40" style="edgeStyle=orthogonalEdgeStyle;rounded=0;orthogonalLoop=1;jettySize=auto;html=1;" edge="1" parent="1" source="6I7LBuJgmqO6G-e0ff2A-13" target="6I7LBuJgmqO6G-e0ff2A-36">
          <mxGeometry relative="1" as="geometry">
            <Array as="points">
              <mxPoint x="730" y="1060" />
            </Array>
          </mxGeometry>
        </mxCell>
        <mxCell id="6I7LBuJgmqO6G-e0ff2A-13" value="BAJO PESO" style="shape=parallelogram;perimeter=parallelogramPerimeter;whiteSpace=wrap;html=1;fixedSize=1;" vertex="1" parent="1">
          <mxGeometry x="680" y="530" width="120" height="60" as="geometry" />
        </mxCell>
        <mxCell id="6I7LBuJgmqO6G-e0ff2A-15" value="NO" style="text;html=1;align=center;verticalAlign=middle;resizable=0;points=[];autosize=1;strokeColor=none;fillColor=none;" vertex="1" parent="1">
          <mxGeometry x="394" y="610" width="40" height="30" as="geometry" />
        </mxCell>
        <mxCell id="6I7LBuJgmqO6G-e0ff2A-18" style="edgeStyle=orthogonalEdgeStyle;rounded=0;orthogonalLoop=1;jettySize=auto;html=1;" edge="1" parent="1" source="6I7LBuJgmqO6G-e0ff2A-17" target="6I7LBuJgmqO6G-e0ff2A-20">
          <mxGeometry relative="1" as="geometry">
            <mxPoint x="260" y="755" as="targetPoint" />
          </mxGeometry>
        </mxCell>
        <mxCell id="6I7LBuJgmqO6G-e0ff2A-21" style="edgeStyle=orthogonalEdgeStyle;rounded=0;orthogonalLoop=1;jettySize=auto;html=1;" edge="1" parent="1" source="6I7LBuJgmqO6G-e0ff2A-17" target="6I7LBuJgmqO6G-e0ff2A-23">
          <mxGeometry relative="1" as="geometry">
            <mxPoint x="580" y="755" as="targetPoint" />
            <Array as="points">
              <mxPoint x="450" y="740" />
              <mxPoint x="450" y="740" />
            </Array>
          </mxGeometry>
        </mxCell>
        <mxCell id="6I7LBuJgmqO6G-e0ff2A-17" value="&lt;div style=&quot;color: rgb(204, 204, 204); background-color: rgb(31, 31, 31); font-family: Consolas, &amp;quot;Courier New&amp;quot;, monospace; font-size: 14px; line-height: 19px; white-space: pre;&quot;&gt;&lt;span style=&quot;color: #9cdcfe;&quot;&gt;imc&lt;/span&gt;&lt;span style=&quot;color: #d4d4d4;&quot;&gt;&amp;gt;=&lt;/span&gt;&lt;span style=&quot;color: #b5cea8;&quot;&gt;18.5&lt;/span&gt; &lt;span style=&quot;color: #569cd6;&quot;&gt;and&lt;/span&gt; &lt;span style=&quot;color: #9cdcfe;&quot;&gt;imc&lt;/span&gt;&lt;span style=&quot;color: #d4d4d4;&quot;&gt;&amp;lt;&lt;/span&gt;&lt;span style=&quot;color: #b5cea8;&quot;&gt;25&lt;/span&gt;&lt;/div&gt;" style="rhombus;whiteSpace=wrap;html=1;" vertex="1" parent="1">
          <mxGeometry x="337.5" y="655" width="190" height="130" as="geometry" />
        </mxCell>
        <mxCell id="6I7LBuJgmqO6G-e0ff2A-19" value="SI" style="text;html=1;align=center;verticalAlign=middle;resizable=0;points=[];autosize=1;strokeColor=none;fillColor=none;" vertex="1" parent="1">
          <mxGeometry x="285" y="718" width="30" height="30" as="geometry" />
        </mxCell>
        <mxCell id="6I7LBuJgmqO6G-e0ff2A-38" style="edgeStyle=orthogonalEdgeStyle;rounded=0;orthogonalLoop=1;jettySize=auto;html=1;entryX=0;entryY=1;entryDx=0;entryDy=0;" edge="1" parent="1" source="6I7LBuJgmqO6G-e0ff2A-20" target="6I7LBuJgmqO6G-e0ff2A-36">
          <mxGeometry relative="1" as="geometry">
            <Array as="points">
              <mxPoint x="120" y="1050" />
              <mxPoint x="386" y="1050" />
            </Array>
          </mxGeometry>
        </mxCell>
        <mxCell id="6I7LBuJgmqO6G-e0ff2A-20" value="NORMAL" style="shape=parallelogram;perimeter=parallelogramPerimeter;whiteSpace=wrap;html=1;fixedSize=1;" vertex="1" parent="1">
          <mxGeometry x="70" y="690" width="120" height="60" as="geometry" />
        </mxCell>
        <mxCell id="6I7LBuJgmqO6G-e0ff2A-26" style="edgeStyle=orthogonalEdgeStyle;rounded=0;orthogonalLoop=1;jettySize=auto;html=1;" edge="1" parent="1" source="6I7LBuJgmqO6G-e0ff2A-23" target="6I7LBuJgmqO6G-e0ff2A-28">
          <mxGeometry relative="1" as="geometry">
            <mxPoint x="650" y="895" as="targetPoint" />
          </mxGeometry>
        </mxCell>
        <mxCell id="6I7LBuJgmqO6G-e0ff2A-29" style="edgeStyle=orthogonalEdgeStyle;rounded=0;orthogonalLoop=1;jettySize=auto;html=1;" edge="1" parent="1" source="6I7LBuJgmqO6G-e0ff2A-23" target="6I7LBuJgmqO6G-e0ff2A-34">
          <mxGeometry relative="1" as="geometry">
            <mxPoint x="290" y="895" as="targetPoint" />
          </mxGeometry>
        </mxCell>
        <mxCell id="6I7LBuJgmqO6G-e0ff2A-23" value="&lt;div style=&quot;color: rgb(204, 204, 204); background-color: rgb(31, 31, 31); font-family: Consolas, &amp;quot;Courier New&amp;quot;, monospace; font-size: 14px; line-height: 19px; white-space: pre;&quot;&gt;&lt;span style=&quot;color: #9cdcfe;&quot;&gt;imc&lt;/span&gt;&lt;span style=&quot;color: #d4d4d4;&quot;&gt;&amp;gt;=&lt;/span&gt;&lt;span style=&quot;color: #b5cea8;&quot;&gt;25&lt;/span&gt; &lt;span style=&quot;color: #569cd6;&quot;&gt;and&lt;/span&gt; &lt;span style=&quot;color: #9cdcfe;&quot;&gt;imc&lt;/span&gt;&lt;span style=&quot;color: #d4d4d4;&quot;&gt;&amp;lt;&lt;/span&gt;&lt;span style=&quot;color: #b5cea8;&quot;&gt;30&lt;/span&gt;&lt;/div&gt;" style="rhombus;whiteSpace=wrap;html=1;" vertex="1" parent="1">
          <mxGeometry x="337.5" y="840" width="190" height="110" as="geometry" />
        </mxCell>
        <mxCell id="6I7LBuJgmqO6G-e0ff2A-24" value="NO" style="text;html=1;align=center;verticalAlign=middle;resizable=0;points=[];autosize=1;strokeColor=none;fillColor=none;" vertex="1" parent="1">
          <mxGeometry x="390" y="800" width="40" height="30" as="geometry" />
        </mxCell>
        <mxCell id="6I7LBuJgmqO6G-e0ff2A-27" value="SI" style="text;html=1;align=center;verticalAlign=middle;resizable=0;points=[];autosize=1;strokeColor=none;fillColor=none;" vertex="1" parent="1">
          <mxGeometry x="530" y="865" width="30" height="30" as="geometry" />
        </mxCell>
        <mxCell id="6I7LBuJgmqO6G-e0ff2A-39" style="edgeStyle=orthogonalEdgeStyle;rounded=0;orthogonalLoop=1;jettySize=auto;html=1;entryX=1;entryY=0.5;entryDx=0;entryDy=0;" edge="1" parent="1" source="6I7LBuJgmqO6G-e0ff2A-28" target="6I7LBuJgmqO6G-e0ff2A-36">
          <mxGeometry relative="1" as="geometry">
            <Array as="points">
              <mxPoint x="580" y="1050" />
            </Array>
          </mxGeometry>
        </mxCell>
        <mxCell id="6I7LBuJgmqO6G-e0ff2A-28" value="SOBREPESO" style="shape=parallelogram;perimeter=parallelogramPerimeter;whiteSpace=wrap;html=1;fixedSize=1;" vertex="1" parent="1">
          <mxGeometry x="560" y="865" width="120" height="60" as="geometry" />
        </mxCell>
        <mxCell id="6I7LBuJgmqO6G-e0ff2A-34" value="SOS OBESO" style="shape=parallelogram;perimeter=parallelogramPerimeter;whiteSpace=wrap;html=1;fixedSize=1;" vertex="1" parent="1">
          <mxGeometry x="160" y="865" width="120" height="60" as="geometry" />
        </mxCell>
        <mxCell id="6I7LBuJgmqO6G-e0ff2A-35" value="NO" style="text;html=1;align=center;verticalAlign=middle;resizable=0;points=[];autosize=1;strokeColor=none;fillColor=none;" vertex="1" parent="1">
          <mxGeometry x="280" y="868" width="40" height="30" as="geometry" />
        </mxCell>
        <mxCell id="6I7LBuJgmqO6G-e0ff2A-36" value="FIN" style="ellipse;whiteSpace=wrap;html=1;" vertex="1" parent="1">
          <mxGeometry x="368.75" y="1010" width="120" height="80" as="geometry" />
        </mxCell>
        <mxCell id="6I7LBuJgmqO6G-e0ff2A-37" style="edgeStyle=orthogonalEdgeStyle;rounded=0;orthogonalLoop=1;jettySize=auto;html=1;entryX=0.127;entryY=0.763;entryDx=0;entryDy=0;entryPerimeter=0;" edge="1" parent="1" source="6I7LBuJgmqO6G-e0ff2A-34" target="6I7LBuJgmqO6G-e0ff2A-36">
          <mxGeometry relative="1" as="geometry">
            <Array as="points">
              <mxPoint x="240" y="1071" />
            </Array>
          </mxGeometry>
        </mxCell>
      </root>
    </mxGraphModel>
  </diagram>
</mxfile>
